<svg id="Capa_1" enable-background="new 0 0 512 512" height="512" viewBox="0 0 512 512" width="512" xmlns="http://www.w3.org/2000/svg"><g><g><g><g><g><path d="m300.761 480.146h-89.522l28.603-390.732 3.31-8.147h25.428l3.578 8.147z" fill="#f9efaf"/><path d="m253.434 24.935-22.931 26.11c-9.469 10.782-7.671 27.359 3.89 35.86l5.436 3.998h16.179 16.158l5.442-4.002c11.558-8.499 13.358-25.073 3.893-35.855l-22.919-26.11c-1.364-1.554-3.784-1.554-5.148-.001z" fill="#ffd064"/></g><g><g><g><g><g fill="#ffc250"><path d="m156.898 286.677c.099-.307.197-.615.291-.924h-3.405z"/><path d="m97.182 287.19-.028-1.438h-74.882c5.762 18.787 19.153 34.237 36.56 42.732 1.513.738 3.288.702 4.763-.107 15.954-8.749 28.159-23.485 33.587-41.187z"/></g><path d="m95.745 285.753c-5.781 18.85-19.244 34.336-36.737 42.813 9.287 4.501 19.709 7.029 30.722 7.029 31.758 0 58.609-20.985 67.459-49.842z" fill="#eab14d"/><g><path d="m22.265 293.255c-1.164 0-2.344-.272-3.449-.846-3.676-1.908-5.11-6.436-3.202-10.111l67.459-129.964c1.29-2.485 3.857-4.045 6.657-4.045s5.367 1.56 6.657 4.045l67.459 129.964c1.908 3.676.475 8.203-3.202 10.111-3.676 1.909-8.203.476-10.112-3.201l-60.802-117.14-60.802 117.14c-1.335 2.572-3.952 4.047-6.663 4.047z" fill="#ffd064"/></g></g><g><path d="m171.961 293.253h-164.461c-4.142 0-7.5-3.357-7.5-7.5s3.358-7.5 7.5-7.5h164.461c4.142 0 7.5 3.357 7.5 7.5s-3.357 7.5-7.5 7.5z" fill="#e7a52e"/></g></g><g><g><g fill="#ffc250"><path d="m489.596 286.177c.044-.141.089-.282.132-.424h-.79z"/><path d="m429.506 287.19.273-1.438h-74.969c5.758 18.775 19.136 34.217 36.527 42.716 1.461.714 3.174.68 4.599-.103 15.945-8.75 28.143-23.479 33.57-41.175z"/></g><path d="m428.069 285.753c-5.769 18.811-19.19 34.27-36.629 42.759 9.315 4.534 19.773 7.083 30.83 7.083 31.758 0 58.609-20.985 67.459-49.842z" fill="#eab14d"/><g><path d="m489.734 293.255c-2.71 0-5.327-1.475-6.662-4.047l-60.803-117.14-60.803 117.14c-1.909 3.678-6.436 5.108-10.111 3.201-3.677-1.908-5.11-6.436-3.201-10.111l67.459-129.964c1.289-2.485 3.856-4.045 6.656-4.045s5.367 1.56 6.656 4.045l67.459 129.964c1.909 3.676.476 8.203-3.201 10.111-1.104.573-2.285.846-3.449.846z" fill="#ffd064"/></g></g><g><path d="m504.5 293.253h-164.461c-4.143 0-7.5-3.357-7.5-7.5s3.357-7.5 7.5-7.5h164.461c4.143 0 7.5 3.357 7.5 7.5s-3.357 7.5-7.5 7.5z" fill="#e7a52e"/></g></g></g><path d="m496.623 135.541c.245-10.841-6.784-20.669-16.972-23.182-13.267-3.272-25.336 5.688-27.601 18.302-.525 2.921-3.165 4.909-6.029 4.723-10.672-.693-17.761-5.205-18.283-5.418-32.61-17.493-72.614-22.747-109.753-14.407l-39.836 8.941c-14.503 3.256-29.835 3.254-44.338 0l-39.835-8.941c-61.843-13.884-110.407 14.864-110.884 15.015-5.276 2.832-11.179 4.422-17.156 4.81-2.87.186-5.461-1.833-5.992-4.759-2.07-11.413-12.165-19.829-23.914-18.868-10.426.853-19.045 9.277-20.45 20.007-1.288 9.836 3.465 19.181 11.685 23.734 20.716 12.337 47.504 12.963 69.024 1.413.785-.248 39.325-24.093 91.616-12.356l39.835 8.941c18.475 4.148 38.007 4.147 56.481 0l39.836-8.941c51.615-11.586 91.063 12.183 91.624 12.361 10.299 5.526 21.804 8.265 33.277 8.265 16.744-.002 47.153-7.007 47.665-29.64z" fill="#f6e266"/></g></g></g><path d="m322.813 473.276c0-18.721-15.176-33.896-33.896-33.896h-125.86c-18.721 0-33.896 15.176-33.896 33.896 0 8.259 6.695 14.953 14.953 14.953h177.257c.797 0 1.443-.646 1.443-1.443v-13.51z" fill="#fbe77b"/><path d="m348.944 439.38h-61.445c18.721 0 33.896 15.176 33.896 33.896v14.953h46.492c8.259 0 14.953-6.695 14.953-14.953.001-18.72-15.175-33.896-33.896-33.896z" fill="#ffd064"/><path d="m240.718 396.062h60.038c-.003 0-.006 0-.01 0h-89.492c-11.962 0-21.659 9.697-21.659 21.659 0 11.962 9.697 21.659 21.659 21.659h51.123v-21.659c0-11.962-9.697-21.659-21.659-21.659z" fill="#fbe77b"/><path d="m300.746 396.062h-61.445c11.962 0 21.659 9.697 21.659 21.659v21.659h39.786c11.962 0 21.659-9.697 21.659-21.659 0-11.962-9.697-21.659-21.659-21.659z" fill="#f6e266"/></g></g></svg>